<mxfile host="app.diagrams.net" modified="2023-10-14T14:41:01.633Z" agent="Mozilla/5.0 (Macintosh; Intel Mac OS X 10_15_7) AppleWebKit/537.36 (KHTML, like Gecko) Chrome/117.0.0.0 Safari/537.36 Edg/117.0.2045.40" version="21.6.9" etag="JIWyJEzRke28dLqOUbv5" type="github">
  <diagram name="第 1 页" id="Il7qgwN0xts8YK1iX_vC">
    <mxGraphModel>
      <root>
        <mxCell id="0" />
        <mxCell id="1" parent="0" />
      </root>
    </mxGraphModel>
  </diagram>
</mxfile>
